{
  "accessors": [
    {
      "bufferView": 2,
      "componentType": 5126,
      "count": 11438,
      "max": [
        37.6654167175293,
        37.6654167175293,
        58.62452697753906
      ],
      "min": [
        -52.718231201171875,
        -52.718231201171875,
        3.1840240955352783
      ],
      "type": "VEC3"
    },
    {
      "bufferView": 2,
      "byteOffset": 137256,
      "componentType": 5126,
      "count": 11438,
      "max": [
        1.0,
        1.0,
        1.0
      ],
      "min": [
        -1.0,
        -1.0,
        -1.0
      ],
      "type": "VEC3"
    },
    {
      "bufferView": 1,
      "componentType": 5126,
      "count": 11438,
      "max": [
        0.9455841779708862,
        4.076379776000977
      ],
      "min": [
        -3.182637929916382,
        -1.6850179433822632
      ],
      "type": "VEC2"
    },
    {
      "bufferView": 0,
      "componentType": 5125,
      "count": 17898,
      "type": "SCALAR"
    },
    {
      "bufferView": 2,
      "byteOffset": 274512,
      "componentType": 5126,
      "count": 4336,
      "max": [
        37.6654167175293,
        37.6654167175293,
        58.62452697753906
      ],
      "min": [
        -52.718231201171875,
        -52.718231201171875,
        3.1840240955352783
      ],
      "type": "VEC3"
    },
    {
      "bufferView": 2,
      "byteOffset": 326544,
      "componentType": 5126,
      "count": 4336,
      "max": [
        1.0,
        1.0,
        1.0
      ],
      "min": [
        -1.0,
        -1.0,
        -1.0
      ],
      "type": "VEC3"
    },
    {
      "bufferView": 0,
      "byteOffset": 71592,
      "componentType": 5125,
      "count": 6624,
      "type": "SCALAR"
    },
    {
      "bufferView": 2,
      "byteOffset": 378576,
      "componentType": 5126,
      "count": 1493,
      "max": [
        37.85292053222656,
        37.85292053222656,
        61.122291564941406
      ],
      "min": [
        -53.572330474853516,
        -53.572330474853516,
        -4.440892098500626e-16
      ],
      "type": "VEC3"
    },
    {
      "bufferView": 2,
      "byteOffset": 396492,
      "componentType": 5126,
      "count": 1493,
      "max": [
        1.0,
        1.0,
        1.0
      ],
      "min": [
        -1.0,
        -1.0,
        -1.0
      ],
      "type": "VEC3"
    },
    {
      "bufferView": 3,
      "componentType": 5126,
      "count": 1493,
      "max": [
        1.0,
        1.0,
        1.0,
        1.0
      ],
      "min": [
        -1.0,
        -1.0,
        -1.0,
        -1.0
      ],
      "type": "VEC4"
    },
    {
      "bufferView": 1,
      "byteOffset": 91504,
      "componentType": 5126,
      "count": 1493,
      "max": [
        2.8625810146331787,
        7.322037220001221
      ],
      "min": [
        -1.6035380363464355,
        -2.783267021179199
      ],
      "type": "VEC2"
    },
    {
      "bufferView": 0,
      "byteOffset": 98088,
      "componentType": 5125,
      "count": 2655,
      "type": "SCALAR"
    },
    {
      "bufferView": 2,
      "byteOffset": 414408,
      "componentType": 5126,
      "count": 68,
      "max": [
        37.311004638671875,
        37.311004638671875,
        59.34027099609375
      ],
      "min": [
        -52.822330474853516,
        -52.822330474853516,
        16.637149810791016
      ],
      "type": "VEC3"
    },
    {
      "bufferView": 0,
      "byteOffset": 108708,
      "componentType": 5125,
      "count": 68,
      "type": "SCALAR"
    },
    {
      "bufferView": 2,
      "byteOffset": 415224,
      "componentType": 5126,
      "count": 17008,
      "max": [
        37.311004638671875,
        37.311004638671875,
        59.34027099609375
      ],
      "min": [
        -52.822330474853516,
        -52.822330474853516,
        14.637149810791016
      ],
      "type": "VEC3"
    },
    {
      "bufferView": 2,
      "byteOffset": 619320,
      "componentType": 5126,
      "count": 17008,
      "max": [
        1.0,
        1.0,
        1.0
      ],
      "min": [
        -1.0,
        -1.0,
        -1.0
      ],
      "type": "VEC3"
    },
    {
      "bufferView": 3,
      "byteOffset": 23888,
      "componentType": 5126,
      "count": 17008,
      "max": [
        1.0,
        1.0,
        0.999569833278656,
        1.0
      ],
      "min": [
        -1.0,
        -1.0,
        -0.9959228038787842,
        -1.0
      ],
      "type": "VEC4"
    },
    {
      "bufferView": 1,
      "byteOffset": 103448,
      "componentType": 5126,
      "count": 17008,
      "max": [
        0.20764589309692383,
        0.467203289270401
      ],
      "min": [
        -0.07422251254320145,
        -0.2902837097644806
      ],
      "type": "VEC2"
    },
    {
      "bufferView": 0,
      "byteOffset": 108980,
      "componentType": 5125,
      "count": 34308,
      "type": "SCALAR"
    }
  ],
  "asset": {
    "extras": {
      "author": "jimbogies (https://sketchfab.com/jimbogies)",
      "license": "CC-BY-4.0 (http://creativecommons.org/licenses/by/4.0/)",
      "source": "https://sketchfab.com/3d-models/corner-bookcase-cabinet-c75bc71a5039440aa38f106e4086bd4e",
      "title": "Corner Bookcase Cabinet"
    },
    "generator": "Sketchfab-12.66.0",
    "version": "2.0"
  },
  "bufferViews": [
    {
      "buffer": 0,
      "byteLength": 246212,
      "name": "floatBufferViews",
      "target": 34963
    },
    {
      "buffer": 0,
      "byteLength": 239512,
      "byteOffset": 246212,
      "byteStride": 8,
      "name": "floatBufferViews",
      "target": 34962
    },
    {
      "buffer": 0,
      "byteLength": 823416,
      "byteOffset": 485724,
      "byteStride": 12,
      "name": "floatBufferViews",
      "target": 34962
    },
    {
      "buffer": 0,
      "byteLength": 296016,
      "byteOffset": 1309140,
      "byteStride": 16,
      "name": "floatBufferViews",
      "target": 34962
    }
  ],
  "buffers": [
    {
      "byteLength": 1605156,
      "uri": "scene.bin"
    }
  ],
  "images": [
    {
      "uri": "textures/Books_baseColor.jpeg"
    },
    {
      "uri": "textures/Wood03-basecolor_baseColor.jpeg"
    },
    {
      "uri": "textures/Wood03-basecolor_metallicRoughness.png"
    },
    {
      "uri": "textures/Wood03-basecolor_normal.png"
    },
    {
      "uri": "textures/Metal07-basecolor_baseColor.jpeg"
    },
    {
      "uri": "textures/Metal07-basecolor_metallicRoughness.png"
    },
    {
      "uri": "textures/Metal07-basecolor_normal.png"
    }
  ],
  "materials": [
    {
      "name": "Books",
      "pbrMetallicRoughness": {
        "baseColorTexture": {
          "index": 0
        },
        "metallicFactor": 0.0,
        "roughnessFactor": 0.6
      }
    },
    {
      "name": "Pages",
      "pbrMetallicRoughness": {
        "baseColorFactor": [
          0.443137,
          0.443137,
          0.443137,
          1.0
        ],
        "metallicFactor": 0.0,
        "roughnessFactor": 0.6
      }
    },
    {
      "name": "Wood03-basecolor",
      "normalTexture": {
        "index": 3
      },
      "pbrMetallicRoughness": {
        "baseColorTexture": {
          "index": 1
        },
        "metallicFactor": 0.0,
        "metallicRoughnessTexture": {
          "index": 2
        }
      }
    },
    {
      "name": "edge_color000255",
      "pbrMetallicRoughness": {
        "metallicFactor": 0.0,
        "roughnessFactor": 0.6036471918720245
      }
    },
    {
      "name": "Metal07-basecolor",
      "normalTexture": {
        "index": 6
      },
      "pbrMetallicRoughness": {
        "baseColorTexture": {
          "index": 4
        },
        "metallicFactor": 0.8286135989152972,
        "metallicRoughnessTexture": {
          "index": 5
        }
      }
    }
  ],
  "meshes": [
    {
      "name": "Material2",
      "primitives": [
        {
          "attributes": {
            "NORMAL": 1,
            "POSITION": 0,
            "TEXCOORD_0": 2
          },
          "indices": 3,
          "material": 0,
          "mode": 4
        }
      ]
    },
    {
      "name": "Material2",
      "primitives": [
        {
          "attributes": {
            "NORMAL": 5,
            "POSITION": 4
          },
          "indices": 6,
          "material": 1,
          "mode": 4
        }
      ]
    },
    {
      "name": "Material2",
      "primitives": [
        {
          "attributes": {
            "NORMAL": 8,
            "POSITION": 7,
            "TANGENT": 9,
            "TEXCOORD_0": 10
          },
          "indices": 11,
          "material": 2,
          "mode": 4
        }
      ]
    },
    {
      "name": "Material2",
      "primitives": [
        {
          "attributes": {
            "POSITION": 12
          },
          "indices": 13,
          "material": 3,
          "mode": 1
        }
      ]
    },
    {
      "name": "Material2",
      "primitives": [
        {
          "attributes": {
            "NORMAL": 15,
            "POSITION": 14,
            "TANGENT": 16,
            "TEXCOORD_0": 17
          },
          "indices": 18,
          "material": 4,
          "mode": 4
        }
      ]
    }
  ],
  "nodes": [
    {
      "children": [
        1
      ],
      "matrix": [
        1.0,
        0.0,
        0.0,
        0.0,
        0.0,
        2.220446049250313e-16,
        -1.0,
        0.0,
        0.0,
        1.0,
        2.220446049250313e-16,
        0.0,
        0.0,
        0.0,
        0.0,
        1.0
      ],
      "name": "Sketchfab_model"
    },
    {
      "children": [
        2,
        3,
        4,
        5,
        6,
        7
      ],
      "name": "Collada visual scene group"
    },
    {
      "mesh": 0,
      "name": "Material2"
    },
    {
      "mesh": 1,
      "name": "Material2"
    },
    {
      "mesh": 2,
      "name": "Material2"
    },
    {
      "mesh": 3,
      "name": "Material2"
    },
    {
      "mesh": 4,
      "name": "Material2"
    },
    {
      "children": [
        8
      ],
      "name": "SketchUp"
    },
    {
      "children": [
        9
      ],
      "matrix": [
        0.6332313,
        -0.7739626,
        -1.387779e-17,
        0.0,
        0.1033766,
        0.08457945,
        0.9910396,
        0.0,
        -0.7670276,
        -0.6275573,
        0.133568,
        0.0,
        -109.6117,
        -76.95497,
        46.84209,
        1.0
      ],
      "name": "skp_camera_Last_Saved_SketchUp_View"
    },
    {
      "name": "ID1"
    }
  ],
  "samplers": [
    {
      "magFilter": 9729,
      "minFilter": 9987,
      "wrapS": 10497,
      "wrapT": 10497
    }
  ],
  "scene": 0,
  "scenes": [
    {
      "name": "Sketchfab_Scene",
      "nodes": [
        0
      ]
    }
  ],
  "textures": [
    {
      "sampler": 0,
      "source": 0
    },
    {
      "sampler": 0,
      "source": 1
    },
    {
      "sampler": 0,
      "source": 2
    },
    {
      "sampler": 0,
      "source": 3
    },
    {
      "sampler": 0,
      "source": 4
    },
    {
      "sampler": 0,
      "source": 5
    },
    {
      "sampler": 0,
      "source": 6
    }
  ]
}
